<?xml version="1.0" encoding="UTF-8" standalone="no"?>
<svg
   xmlns:dc="http://purl.org/dc/elements/1.1/"
   xmlns:cc="http://creativecommons.org/ns#"
   xmlns:rdf="http://www.w3.org/1999/02/22-rdf-syntax-ns#"
   xmlns:svg="http://www.w3.org/2000/svg"
   xmlns="http://www.w3.org/2000/svg"
   xmlns:sodipodi="http://sodipodi.sourceforge.net/DTD/sodipodi-0.dtd"
   xmlns:inkscape="http://www.inkscape.org/namespaces/inkscape"
   id="Layer_1"
   xml:space="preserve"
   viewBox="555 224.5 430 430"
   version="1.1"
   inkscape:version="0.48.3.1 r9886"
   width="100%"
   height="100%"
   sodipodi:docname="TV.svg"
   inkscape:export-filename="/home/ikuo/work/garaponoid/src/main/res/drawable-xxxhdpi/tv.png"
   inkscape:export-xdpi="40.186047"
   inkscape:export-ydpi="40.186047"><defs
   id="defs12" /><sodipodi:namedview
   pagecolor="#ffffff"
   bordercolor="#666666"
   borderopacity="1"
   objecttolerance="10"
   gridtolerance="10"
   guidetolerance="10"
   inkscape:pageopacity="0"
   inkscape:pageshadow="2"
   inkscape:window-width="1493"
   inkscape:window-height="962"
   id="namedview10"
   showgrid="false"
   inkscape:zoom="2"
   inkscape:cx="134.40579"
   inkscape:cy="250.60227"
   inkscape:window-x="146"
   inkscape:window-y="44"
   inkscape:window-maximized="0"
   inkscape:current-layer="Layer_1" />
<path
   id="path3"
   d="m 660.56,322.02 c -17.225,-0.46086 -35.548,5.1713 -45.938,19.594 -21.245,25.942 -29.158,60.359 -32.04,93.279 -1.6001,24.024 -0.22767,49.996 13.352,70.565 17.422,23.267 44.297,37.075 69.715,50.212 35.488,16.962 73.57,30.802 113.19,32.569 15.705,0.5597 31.94,-4.7425 42.406,-16.719 24.834,-24.996 38.995,-58.663 48.6,-92.154 6.5158,-24.575 10.818,-51.739 1.8688,-76.158 -9.812,-21.005 -32.262,-31.843 -52.09,-41.823 -43.902,-20.673 -91.499,-33.624 -139.72,-38.708 -6.4312,-0.51841 -12.892,-0.77471 -19.344,-0.65625 z"
   inkscape:connector-curvature="0"
   style="fill:#ffffff" />
<path
   id="path6"
   d="m 653.31,303.87 h 3.856 c 17.788,0.268 35.482,2.506 52.997,5.504 23.646,4.108 47.01,9.749 70.036,16.496 19.36,5.694 38.491,12.207 57.204,19.77 12.53,5.087 24.886,10.642 36.819,17.015 7.874,4.226 15.576,8.799 22.818,14.044 6.427,4.699 12.618,9.903 17.402,16.317 5.956,8.149 8.979,18.06 10.399,27.956 0.676,4.504 0.861,9.059 1.182,13.597 v 4.199 c -0.367,5.777 -0.647,11.567 -1.42,17.309 -2.653,20.562 -8.489,40.633 -16.309,59.804 -7.288,17.679 -16.333,34.712 -27.708,50.111 -5.774,7.756 -12.177,15.095 -19.519,21.409 -6.624,5.662 -14.1,10.575 -22.497,13.124 -6.556,2.011 -13.432,2.455 -20.232,2.886 h -4.236 c -5.301,-0.349 -10.612,-0.586 -15.889,-1.22 -12.23,-1.38 -24.327,-3.781 -36.277,-6.705 -20.914,-5.164 -41.402,-11.955 -61.456,-19.81 -13.923,-5.47 -27.63,-11.492 -41.047,-18.106 -15.213,-7.529 -30.104,-15.771 -44.169,-25.292 -7.205,-4.903 -14.199,-10.142 -20.655,-16.004 -3.964,-3.61 -7.724,-7.467 -10.992,-11.725 -5.314,-6.961 -9.005,-15.036 -11.658,-23.348 -4.354,-13.771 -5.975,-28.264 -6.186,-42.661 v -4.06 c 0.294,-20.377 3.423,-40.725 9.422,-60.205 3.862,-12.42 8.914,-24.533 15.731,-35.635 4.338,-7.034 9.419,-13.661 15.504,-19.277 4.755,-4.383 10.16,-8.122 16.141,-10.628 4.324,-1.834 8.935,-2.896 13.567,-3.603 5.683,-0.866 11.433,-1.158 17.172,-1.262 m 1.169,22.428 c -6.136,0.46 -12.324,1.319 -18.101,3.525 -7.106,2.771 -13.098,7.791 -18.085,13.469 -6.328,7.255 -11.22,15.65 -15.264,24.354 -4.557,9.879 -8.021,20.243 -10.682,30.783 -2.564,10.235 -4.364,20.663 -5.389,31.163 -1.297,13.605 -1.375,27.387 0.596,40.932 1.367,9.134 3.653,18.234 7.829,26.515 4.309,8.577 11.205,15.485 18.402,21.684 7.16,6.096 14.886,11.489 22.838,16.499 8.082,5.071 16.424,9.717 24.929,14.044 13.602,6.889 27.607,12.977 41.919,18.245 12.22,4.477 24.658,8.379 37.322,11.396 10.604,2.501 21.374,4.435 32.262,5.09 7.136,0.398 14.365,0.275 21.38,-1.196 3.763,-0.786 7.422,-2.075 10.792,-3.929 4.71,-2.567 8.933,-5.942 12.805,-9.636 6.828,-6.549 12.618,-14.105 17.817,-21.989 5.52,-8.414 10.337,-17.277 14.618,-26.381 5.184,-11.038 9.58,-22.447 13.161,-34.102 3.499,-11.434 6.237,-23.121 7.813,-34.979 1.492,-11.521 2.006,-23.297 0.024,-34.794 -1.001,-5.646 -2.656,-11.235 -5.448,-16.269 -2.055,-3.728 -4.822,-7.012 -7.839,-9.994 -4.598,-4.501 -9.772,-8.374 -15.132,-11.917 -7.016,-4.613 -14.389,-8.657 -21.909,-12.38 -9.414,-4.643 -19.077,-8.767 -28.877,-12.525 -21.307,-8.133 -43.219,-14.667 -65.468,-19.673 -13.155,-2.934 -26.445,-5.328 -39.844,-6.825 -10.772,-1.171 -21.643,-1.84 -32.469,-1.11 z"
   inkscape:connector-curvature="0"
   style="fill:#669900;fill-opacity:1" />
<path
   id="path2996"
   d="m 826.75,346.96 -2.4968,-90.911 7.0728,87.227 148.64,-85.136 -146.62,91.217 z"
   inkscape:connector-curvature="0"
   style="fill:#669900;fill-opacity:1" /><path
   id="path3766"
   style="text-indent:0;text-transform:none;block-progression:tb;color:#000000;fill:#669900;fill-opacity:1"
   d="m 644.74,542.12 a 2.5002,2.5002 0 0 0 -1.5,0.6875 l -22.188,20.5 a 2.5002,2.5002 0 1 0 3.4062,3.6562 l 22.188,-20.469 a 2.5002,2.5002 0 0 0 -1.9062,-4.375 z"
   inkscape:connector-curvature="0" /><path
   id="path3768"
   style="text-indent:0;text-transform:none;block-progression:tb;color:#000000;fill:#669900;fill-opacity:1;stroke-width:0.1;stroke-miterlimit:4;stroke-dasharray:none"
   d="m 735.24,580.37 a 3.5004,3.5004 0 0 0 -3.25,4.0312 l 3.4062,23.906 a 3.5024057,3.5024057 0 1 0 6.9375,-0.96875 l -3.4062,-23.906 a 3.5004,3.5004 0 0 0 -3.6875,-3.0625 z"
   inkscape:connector-curvature="0" /><metadata
   id="metadata8"><rdf:RDF><cc:Work><dc:format>image/svg+xml</dc:format><dc:type
         rdf:resource="http://purl.org/dc/dcmitype/StillImage" /><cc:license
         rdf:resource="http://creativecommons.org/licenses/publicdomain/" /><dc:publisher><cc:Agent
           rdf:about="http://openclipart.org/"><dc:title>Openclipart</dc:title></cc:Agent></dc:publisher><dc:title>TV cartoon empty</dc:title><dc:date>2013-09-04T11:22:41</dc:date><dc:description>TV empty screen, cartoon style clipart.</dc:description><dc:source>http://openclipart.org/detail/182928/tv-cartoon-empty-by-justin-ternet-182928</dc:source><dc:creator><cc:Agent><dc:title>Justin Ternet</dc:title></cc:Agent></dc:creator><dc:subject><rdf:Bag><rdf:li>ameublement</rdf:li><rdf:li>cabinet</rdf:li><rdf:li>cartoon</rdf:li><rdf:li>clipart</rdf:li><rdf:li>clipart_issue</rdf:li><rdf:li>display</rdf:li><rdf:li>furnishing</rdf:li><rdf:li>meuble</rdf:li><rdf:li>object</rdf:li><rdf:li>screen</rdf:li><rdf:li>television</rdf:li><rdf:li>tv</rdf:li><rdf:li>télévision</rdf:li></rdf:Bag></dc:subject></cc:Work><cc:License
       rdf:about="http://creativecommons.org/licenses/publicdomain/"><cc:permits
         rdf:resource="http://creativecommons.org/ns#Reproduction" /><cc:permits
         rdf:resource="http://creativecommons.org/ns#Distribution" /><cc:permits
         rdf:resource="http://creativecommons.org/ns#DerivativeWorks" /></cc:License></rdf:RDF></metadata><rect
   style="fill:none;stroke:none"
   id="rect3763"
   width="386"
   height="340"
   x="542"
   y="224.5"
   ry="1" /><rect
   style="fill:none;stroke:none"
   id="rect3765"
   width="36"
   height="34"
   x="892"
   y="350.5"
   ry="1" /><rect
   style="fill:none;stroke:none"
   id="rect3767"
   width="426"
   height="389"
   x="561"
   y="237.5"
   ry="1" /><rect
   style="fill:none;stroke:none"
   id="rect3769"
   width="426"
   height="419"
   x="548"
   y="228.5"
   ry="1" /></svg>